<svg width="134" height="150" viewBox="0 0 134 150" fill="none" xmlns="http://www.w3.org/2000/svg">
<path d="M133.5 116.875C133.5 117.542 133.25 118 132.75 118.25C132.333 118.5 132.25 119.083 132.5 120C131.833 120.083 131.25 120.417 130.75 121C130.25 121.583 129.667 121.875 129 121.875C128.583 121.875 128.25 121.667 128 121.25C127.833 121.833 127.5 122.25 127 122.5C126.583 122.75 126.125 122.958 125.625 123.125C125.125 123.292 124.625 123.5 124.125 123.75C123.625 124 123.292 124.375 123.125 124.875H122.5C121.5 124.875 120.708 125.292 120.125 126.125C119.625 126.958 119 127.375 118.25 127.375C118 127.375 117.833 127.333 117.75 127.25C117.333 127.333 117.167 127.583 117.25 128C117.333 128.5 117.208 128.833 116.875 129H116.25C114.083 129 111.875 129.458 109.625 130.375C107.375 131.292 105.083 132.333 102.75 133.5C100.5 134.667 98.1667 135.75 95.75 136.75C93.4167 137.833 91.0417 138.542 88.625 138.875C88.125 139.375 87.5 139.75 86.75 140C86.0833 140.333 85.3333 140.583 84.5 140.75C83.6667 140.917 82.8333 141.083 82 141.25C81.25 141.5 80.5833 141.875 80 142.375C77.9167 142.542 75.8333 142.917 73.75 143.5C71.6667 144.083 69.5833 144.625 67.5 145.125C65.5 145.708 63.4167 146.167 61.25 146.5C59.1667 146.917 57.0417 147.042 54.875 146.875C54.2083 147.375 53.4583 147.75 52.625 148C51.875 148.333 51.1667 148.75 50.5 149.25C47.0833 148.75 43.6667 148.375 40.25 148.125C36.9167 147.875 33.625 147.292 30.375 146.375C30.375 146.125 30.2917 145.958 30.125 145.875C29.9583 145.792 29.75 145.708 29.5 145.625C29.3333 145.625 29.1667 145.542 29 145.375C28.8333 145.292 28.8333 145.083 29 144.75C28.25 145 27.5833 145.125 27 145.125C26.1667 145.125 25.3333 144.917 24.5 144.5C23.75 144.083 22.9167 143.625 22 143.125C21.1667 142.625 20.2917 142.125 19.375 141.625C18.4583 141.208 17.4583 141 16.375 141C15.7083 140.333 15.0833 139.667 14.5 139C14 138.333 13.625 137.5 13.375 136.5C13.0417 136.417 12.6667 136.417 12.25 136.5C11.9167 136.583 11.625 136.625 11.375 136.625C10.875 136.625 10.625 136.458 10.625 136.125C8.875 134.875 7.625 133.542 6.875 132.125C6.125 130.708 5.29167 129.083 4.375 127.25C4.125 126.667 3.79167 126.167 3.375 125.75C3.04167 125.417 2.79167 125 2.625 124.5C2.29167 123.667 2.08333 122.792 2 121.875C1.91667 120.958 1.83333 120.083 1.75 119.25C1.75 118.333 1.625 117.458 1.375 116.625C1.20833 115.708 0.833333 114.875 0.25 114.125C0.416667 110.958 0.75 107.792 1.25 104.625C1.83333 101.458 2.54167 98.2917 3.375 95.125C3.70833 93.7083 4.08333 92.3333 4.5 91C4.91667 89.6667 5.29167 88.2917 5.625 86.875C5.70833 86.375 5.83333 86.0417 6 85.875C6.25 85.625 6.45833 85.4583 6.625 85.375L7.125 85C7.29167 84.8333 7.41667 84.5833 7.5 84.25L8.5 80C9.16667 77.25 10.0417 74.5833 11.125 72C12.2083 69.4167 13.6667 67.0417 15.5 64.875C15.6667 62.7917 16.125 60.8333 16.875 59C17.7083 57.0833 18.625 55.25 19.625 53.5C20.625 51.6667 21.625 49.875 22.625 48.125C23.625 46.375 24.4167 44.5 25 42.5L24.875 42.25C24.875 41.9167 25.0417 41.75 25.375 41.75C25.7917 41.6667 26.0833 41.625 26.25 41.625C26.3333 40.2917 26.625 39.1667 27.125 38.25C27.7083 37.25 28.2917 36.3333 28.875 35.5C29.5417 34.6667 30.125 33.7917 30.625 32.875C31.2083 31.875 31.5417 30.7083 31.625 29.375C33.2083 28.4583 34.5417 27.3333 35.625 26C36.7917 24.5833 37.875 23.1667 38.875 21.75C39.9583 20.25 41.0833 18.8333 42.25 17.5C43.4167 16.0833 44.8333 14.9583 46.5 14.125C46.9167 13.625 47.0417 12.9167 46.875 12C49.4583 10.0833 52.125 8.375 54.875 6.875C57.625 5.375 60.2083 3.625 62.625 1.625H67.125C68.2083 0.791667 69.4167 0.375 70.75 0.375C71.75 0.375 72.7083 0.583333 73.625 1C74.625 1.41667 75.5417 1.91667 76.375 2.5C77.2917 3 78.2083 3.54167 79.125 4.125C80.0417 4.625 80.9583 5 81.875 5.25C82.7917 6.5 83.4167 7.95833 83.75 9.625C84.1667 11.2083 84.5833 12.7083 85 14.125C84.25 16.375 83.7917 18.7083 83.625 21.125C83.4583 23.4583 83.1667 25.7917 82.75 28.125C82.1667 28.7917 81.6667 29.5417 81.25 30.375C80.8333 31.125 80.375 31.9167 79.875 32.75C79.4583 33.5 79 34.25 78.5 35C78 35.6667 77.3333 36.2083 76.5 36.625C75.8333 39.0417 74.7917 40.9583 73.375 42.375C71.9583 43.7917 70.5833 45.4583 69.25 47.375C68 48.2083 66.6667 48.625 65.25 48.625C64.0833 48.625 63.0417 48.375 62.125 47.875C61.2083 47.2917 60.375 46.5833 59.625 45.75C58.875 44.8333 58.25 43.875 57.75 42.875C57.3333 41.7917 57 40.75 56.75 39.75C57.3333 38 58.25 36.5 59.5 35.25C60.8333 34 62.1667 32.75 63.5 31.5C64.8333 30.25 66 28.9167 67 27.5C68 26.0833 68.5 24.375 68.5 22.375C68.5 22.2083 68.4583 22.0417 68.375 21.875C68.375 21.7083 68.375 21.5417 68.375 21.375C68.375 21.0417 68.5 20.75 68.75 20.5C69 20.25 69.25 20.0417 69.5 19.875L70.25 19.25C70.5 19 70.625 18.7083 70.625 18.375C70.625 18.0417 70.4583 17.7083 70.125 17.375C66.9583 17.625 64.5417 18.1667 62.875 19C61.2917 19.8333 60.0417 20.75 59.125 21.75C58.2083 22.75 57.375 23.75 56.625 24.75C55.9583 25.6667 54.9583 26.3333 53.625 26.75C53.375 27.4167 53 28 52.5 28.5C52.0833 28.9167 51.625 29.375 51.125 29.875C50.625 30.2917 50.1667 30.7917 49.75 31.375C49.4167 31.9583 49.2083 32.6667 49.125 33.5H46.875C46.5417 34.25 46.0417 35 45.375 35.75C44.7917 36.4167 44.1667 37.0833 43.5 37.75C42.9167 38.4167 42.375 39.1667 41.875 40C41.4583 40.75 41.3333 41.5833 41.5 42.5C40.5833 42.8333 39.875 43.375 39.375 44.125C38.9583 44.875 38.3333 45.5 37.5 46V46.75C37.5 47.4167 37.375 48.0417 37.125 48.625C36.875 49.2083 36.8333 49.8333 37 50.5C36 51.4167 35.25 52.5833 34.75 54C34.3333 55.3333 33.875 56.5833 33.375 57.75C32.2083 58.3333 31.4167 59.125 31 60.125C30.5833 61.125 30.375 62.2917 30.375 63.625C29.125 64.875 28 66.3333 27 68C26 69.6667 25.0833 71.375 24.25 73.125C23.5 74.875 22.7917 76.6667 22.125 78.5C21.4583 80.3333 20.75 82.0417 20 83.625V87.25C18.8333 88.5833 18 90.1667 17.5 92C17.0833 93.75 16.4167 95.3333 15.5 96.75C15.3333 97.6667 15.25 98.5833 15.25 99.5C15.3333 100.417 15.375 101.333 15.375 102.25C15.375 103.25 15.2917 104.292 15.125 105.375C14.9583 106.458 14.6667 107.458 14.25 108.375C14.5833 109.625 14.8333 111.125 15 112.875C15.1667 114.542 15.4583 116.25 15.875 118C16.2917 119.667 16.875 121.208 17.625 122.625C18.375 123.958 19.4583 124.875 20.875 125.375C21.2083 127.208 22 128.583 23.25 129.5C24.5833 130.5 26.0833 131.292 27.75 131.875C29.4167 132.458 31.125 132.958 32.875 133.375C34.625 133.875 36.1667 134.5 37.5 135.25C38 135 38.5833 134.875 39.25 134.875C39.9167 134.875 40.5 134.958 41 135.125C41.5833 135.292 42.2083 135.458 42.875 135.625C44.0417 135.458 45.4583 135.375 47.125 135.375C48.875 135.375 50.625 135.292 52.375 135.125C54.125 135.042 55.75 134.833 57.25 134.5C58.75 134.167 59.9583 133.542 60.875 132.625C61.4583 132.625 61.8333 132.792 62 133.125C62.25 133.458 62.6667 133.625 63.25 133.625C63.8333 133.625 64.7083 133.458 65.875 133.125C67.0417 132.875 68.25 132.542 69.5 132.125C70.75 131.792 71.9167 131.417 73 131C74.1667 130.583 75 130.208 75.5 129.875C75.75 129.958 76 130 76.25 130H77.125C78.2917 130 79.375 129.792 80.375 129.375C81.375 128.958 82.4583 128.833 83.625 129C87.4583 127.083 91.3333 125.417 95.25 124C99.25 122.667 103.292 121.458 107.375 120.375C107.875 119.625 108.458 119.083 109.125 118.75C109.875 118.417 110.667 118.167 111.5 118C112.333 117.75 113.167 117.583 114 117.5C114.833 117.333 115.625 117.125 116.375 116.875C116.875 116.625 117.292 116.333 117.625 116C118.042 115.583 118.542 115.25 119.125 115C119.708 114.75 120.333 114.583 121 114.5C121.75 114.417 122.458 114.333 123.125 114.25C123.875 114.083 124.542 113.875 125.125 113.625C125.792 113.375 126.333 112.958 126.75 112.375C127.917 112.875 129.083 113.417 130.25 114C131.5 114.583 132.542 115.417 133.375 116.5L133.5 116.875Z" fill="white"/>
</svg>
