<svg width="53" height="86" viewBox="0 0 53 86" fill="none" xmlns="http://www.w3.org/2000/svg">
<path d="M37.8281 55.9961C37.8281 56.1836 37.7578 56.3125 37.6172 56.3828C37.5 56.4531 37.4766 56.6172 37.5469 56.875C37.3594 56.8984 37.1953 56.9922 37.0547 57.1562C36.9141 57.3203 36.75 57.4023 36.5625 57.4023C36.4453 57.4023 36.3516 57.3438 36.2812 57.2266C36.2344 57.3906 36.1406 57.5078 36 57.5781C35.8828 57.6484 35.7539 57.707 35.6133 57.7539C35.4727 57.8008 35.332 57.8594 35.1914 57.9297C35.0508 58 34.957 58.1055 34.9102 58.2461H34.7344C34.4531 58.2461 34.2305 58.3633 34.0664 58.5977C33.9258 58.832 33.75 58.9492 33.5391 58.9492C33.4688 58.9492 33.4219 58.9375 33.3984 58.9141C33.2812 58.9375 33.2344 59.0078 33.2578 59.125C33.2812 59.2656 33.2461 59.3594 33.1523 59.4062H32.9766C32.3672 59.4062 31.7461 59.5352 31.1133 59.793C30.4805 60.0508 29.8359 60.3438 29.1797 60.6719C28.5469 61 27.8906 61.3047 27.2109 61.5859C26.5547 61.8906 25.8867 62.0898 25.207 62.1836C25.0664 62.3242 24.8906 62.4297 24.6797 62.5C24.4922 62.5938 24.2812 62.6641 24.0469 62.7109C23.8125 62.7578 23.5781 62.8047 23.3438 62.8516C23.1328 62.9219 22.9453 63.0273 22.7812 63.168C22.1953 63.2148 21.6094 63.3203 21.0234 63.4844C20.4375 63.6484 19.8516 63.8008 19.2656 63.9414C18.7031 64.1055 18.1172 64.2344 17.5078 64.3281C16.9219 64.4453 16.3242 64.4805 15.7148 64.4336C15.5273 64.5742 15.3164 64.6797 15.082 64.75C14.8711 64.8438 14.6719 64.9609 14.4844 65.1016C13.5234 64.9609 12.5625 64.8555 11.6016 64.7852C10.6641 64.7148 9.73828 64.5508 8.82422 64.293C8.82422 64.2227 8.80078 64.1758 8.75391 64.1523C8.70703 64.1289 8.64844 64.1055 8.57812 64.082C8.53125 64.082 8.48438 64.0586 8.4375 64.0117C8.39062 63.9883 8.39062 63.9297 8.4375 63.8359C8.22656 63.9062 8.03906 63.9414 7.875 63.9414C7.64062 63.9414 7.40625 63.8828 7.17188 63.7656C6.96094 63.6484 6.72656 63.5195 6.46875 63.3789C6.23438 63.2383 5.98828 63.0977 5.73047 62.957C5.47266 62.8398 5.19141 62.7812 4.88672 62.7812C4.69922 62.5938 4.52344 62.4062 4.35938 62.2188C4.21875 62.0312 4.11328 61.7969 4.04297 61.5156C3.94922 61.4922 3.84375 61.4922 3.72656 61.5156C3.63281 61.5391 3.55078 61.5508 3.48047 61.5508C3.33984 61.5508 3.26953 61.5039 3.26953 61.4102C2.77734 61.0586 2.42578 60.6836 2.21484 60.2852C2.00391 59.8867 1.76953 59.4297 1.51172 58.9141C1.44141 58.75 1.34766 58.6094 1.23047 58.4922C1.13672 58.3984 1.06641 58.2812 1.01953 58.1406C0.925781 57.9062 0.867188 57.6602 0.84375 57.4023C0.820312 57.1445 0.796875 56.8984 0.773438 56.6641C0.773438 56.4062 0.738281 56.1602 0.667969 55.9258C0.621094 55.668 0.515625 55.4336 0.351562 55.2227C0.398438 54.332 0.492188 53.4414 0.632812 52.5508C0.796875 51.6602 0.996094 50.7695 1.23047 49.8789C1.32422 49.4805 1.42969 49.0938 1.54688 48.7188C1.66406 48.3438 1.76953 47.957 1.86328 47.5586C1.88672 47.418 1.92188 47.3242 1.96875 47.2773C2.03906 47.207 2.09766 47.1602 2.14453 47.1367L2.28516 47.0312C2.33203 46.9844 2.36719 46.9141 2.39062 46.8203L2.67188 45.625C2.85938 44.8516 3.10547 44.1016 3.41016 43.375C3.71484 42.6484 4.125 41.9805 4.64062 41.3711C4.6875 40.7852 4.81641 40.2344 5.02734 39.7188C5.26172 39.1797 5.51953 38.6641 5.80078 38.1719C6.08203 37.6562 6.36328 37.1523 6.64453 36.6602C6.92578 36.168 7.14844 35.6406 7.3125 35.0781L7.27734 35.0078C7.27734 34.9141 7.32422 34.8672 7.41797 34.8672C7.53516 34.8438 7.61719 34.832 7.66406 34.832C7.6875 34.457 7.76953 34.1406 7.91016 33.8828C8.07422 33.6016 8.23828 33.3438 8.40234 33.1094C8.58984 32.875 8.75391 32.6289 8.89453 32.3711C9.05859 32.0898 9.15234 31.7617 9.17578 31.3867C9.62109 31.1289 9.99609 30.8125 10.3008 30.4375C10.6289 30.0391 10.9336 29.6406 11.2148 29.2422C11.5195 28.8203 11.8359 28.4219 12.1641 28.0469C12.4922 27.6484 12.8906 27.332 13.3594 27.0977C13.4766 26.957 13.5117 26.7578 13.4648 26.5C14.1914 25.9609 14.9414 25.4805 15.7148 25.0586C16.4883 24.6367 17.2148 24.1445 17.8945 23.582H19.1602C19.4648 23.3477 19.8047 23.2305 20.1797 23.2305C20.4609 23.2305 20.7305 23.2891 20.9883 23.4062C21.2695 23.5234 21.5273 23.6641 21.7617 23.8281C22.0195 23.9688 22.2773 24.1211 22.5352 24.2852C22.793 24.4258 23.0508 24.5312 23.3086 24.6016C23.5664 24.9531 23.7422 25.3633 23.8359 25.832C23.9531 26.2773 24.0703 26.6992 24.1875 27.0977C23.9766 27.7305 23.8477 28.3867 23.8008 29.0664C23.7539 29.7227 23.6719 30.3789 23.5547 31.0352C23.3906 31.2227 23.25 31.4336 23.1328 31.668C23.0156 31.8789 22.8867 32.1016 22.7461 32.3359C22.6289 32.5469 22.5 32.7578 22.3594 32.9688C22.2188 33.1562 22.0312 33.3086 21.7969 33.4258C21.6094 34.1055 21.3164 34.6445 20.918 35.043C20.5195 35.4414 20.1328 35.9102 19.7578 36.4492C19.4062 36.6836 19.0312 36.8008 18.6328 36.8008C18.3047 36.8008 18.0117 36.7305 17.7539 36.5898C17.4961 36.4258 17.2617 36.2266 17.0508 35.9922C16.8398 35.7344 16.6641 35.4648 16.5234 35.1836C16.4062 34.8789 16.3125 34.5859 16.2422 34.3047C16.4062 33.8125 16.6641 33.3906 17.0156 33.0391C17.3906 32.6875 17.7656 32.3359 18.1406 31.9844C18.5156 31.6328 18.8438 31.2578 19.125 30.8594C19.4062 30.4609 19.5469 29.9805 19.5469 29.418C19.5469 29.3711 19.5352 29.3242 19.5117 29.2773C19.5117 29.2305 19.5117 29.1836 19.5117 29.1367C19.5117 29.043 19.5469 28.9609 19.6172 28.8906C19.6875 28.8203 19.7578 28.7617 19.8281 28.7148L20.0391 28.5391C20.1094 28.4688 20.1445 28.3867 20.1445 28.293C20.1445 28.1992 20.0977 28.1055 20.0039 28.0117C19.1133 28.082 18.4336 28.2344 17.9648 28.4688C17.5195 28.7031 17.168 28.9609 16.9102 29.2422C16.6523 29.5234 16.418 29.8047 16.207 30.0859C16.0195 30.3438 15.7383 30.5312 15.3633 30.6484C15.293 30.8359 15.1875 31 15.0469 31.1406C14.9297 31.2578 14.8008 31.3867 14.6602 31.5273C14.5195 31.6445 14.3906 31.7852 14.2734 31.9492C14.1797 32.1133 14.1211 32.3125 14.0977 32.5469H13.4648C13.3711 32.7578 13.2305 32.9688 13.043 33.1797C12.8789 33.3672 12.7031 33.5547 12.5156 33.7422C12.3516 33.9297 12.1992 34.1406 12.0586 34.375C11.9414 34.5859 11.9062 34.8203 11.9531 35.0781C11.6953 35.1719 11.4961 35.3242 11.3555 35.5352C11.2383 35.7461 11.0625 35.9219 10.8281 36.0625V36.2734C10.8281 36.4609 10.793 36.6367 10.7227 36.8008C10.6523 36.9648 10.6406 37.1406 10.6875 37.3281C10.4062 37.5859 10.1953 37.9141 10.0547 38.3125C9.9375 38.6875 9.80859 39.0391 9.66797 39.3672C9.33984 39.5312 9.11719 39.7539 9 40.0352C8.88281 40.3164 8.82422 40.6445 8.82422 41.0195C8.47266 41.3711 8.15625 41.7812 7.875 42.25C7.59375 42.7188 7.33594 43.1992 7.10156 43.6914C6.89062 44.1836 6.69141 44.6875 6.50391 45.2031C6.31641 45.7188 6.11719 46.1992 5.90625 46.6445V47.6641C5.57812 48.0391 5.34375 48.4844 5.20312 49C5.08594 49.4922 4.89844 49.9375 4.64062 50.3359C4.59375 50.5938 4.57031 50.8516 4.57031 51.1094C4.59375 51.3672 4.60547 51.625 4.60547 51.8828C4.60547 52.1641 4.58203 52.457 4.53516 52.7617C4.48828 53.0664 4.40625 53.3477 4.28906 53.6055C4.38281 53.957 4.45312 54.3789 4.5 54.8711C4.54688 55.3398 4.62891 55.8203 4.74609 56.3125C4.86328 56.7812 5.02734 57.2148 5.23828 57.6133C5.44922 57.9883 5.75391 58.2461 6.15234 58.3867C6.24609 58.9023 6.46875 59.2891 6.82031 59.5469C7.19531 59.8281 7.61719 60.0508 8.08594 60.2148C8.55469 60.3789 9.03516 60.5195 9.52734 60.6367C10.0195 60.7773 10.4531 60.9531 10.8281 61.1641C10.9688 61.0938 11.1328 61.0586 11.3203 61.0586C11.5078 61.0586 11.6719 61.082 11.8125 61.1289C11.9766 61.1758 12.1523 61.2227 12.3398 61.2695C12.668 61.2227 13.0664 61.1992 13.5352 61.1992C14.0273 61.1992 14.5195 61.1758 15.0117 61.1289C15.5039 61.1055 15.9609 61.0469 16.3828 60.9531C16.8047 60.8594 17.1445 60.6836 17.4023 60.4258C17.5664 60.4258 17.6719 60.4727 17.7188 60.5664C17.7891 60.6602 17.9062 60.707 18.0703 60.707C18.2344 60.707 18.4805 60.6602 18.8086 60.5664C19.1367 60.4961 19.4766 60.4023 19.8281 60.2852C20.1797 60.1914 20.5078 60.0859 20.8125 59.9688C21.1406 59.8516 21.375 59.7461 21.5156 59.6523C21.5859 59.6758 21.6562 59.6875 21.7266 59.6875H21.9727C22.3008 59.6875 22.6055 59.6289 22.8867 59.5117C23.168 59.3945 23.4727 59.3594 23.8008 59.4062C24.8789 58.8672 25.9688 58.3984 27.0703 58C28.1953 57.625 29.332 57.2852 30.4805 56.9805C30.6211 56.7695 30.7852 56.6172 30.9727 56.5234C31.1836 56.4297 31.4062 56.3594 31.6406 56.3125C31.875 56.2422 32.1094 56.1953 32.3438 56.1719C32.5781 56.125 32.8008 56.0664 33.0117 55.9961C33.1523 55.9258 33.2695 55.8438 33.3633 55.75C33.4805 55.6328 33.6211 55.5391 33.7852 55.4688C33.9492 55.3984 34.125 55.3516 34.3125 55.3281C34.5234 55.3047 34.7227 55.2812 34.9102 55.2578C35.1211 55.2109 35.3086 55.1523 35.4727 55.082C35.6602 55.0117 35.8125 54.8945 35.9297 54.7305C36.2578 54.8711 36.5859 55.0234 36.9141 55.1875C37.2656 55.3516 37.5586 55.5859 37.793 55.8906L37.8281 55.9961Z" fill="#0A84FF"/>
<path d="M48.932 15.88L50.228 18.22L45.224 20.308L50.264 22.36L48.896 24.772L44.54 21.604L45.116 27.04H42.416L42.956 21.604L38.6 24.808L37.196 22.36L42.2 20.272L37.196 18.256L38.528 15.844L42.992 19.048L42.416 13.576H45.152L44.54 19.048L48.932 15.88Z" fill="#0A84FF"/>
</svg>
