<svg width="200" height="200" viewBox="0 0 200 200" fill="none" xmlns="http://www.w3.org/2000/svg">
<path d="M79.166 129.867V70.1334C79.1673 69.386 79.3695 68.6527 79.7515 68.0104C80.1336 67.368 80.6814 66.8403 81.3375 66.4824C81.9936 66.1245 82.7339 65.9497 83.4808 65.9763C84.2277 66.0028 84.9537 66.2298 85.5827 66.6334L132.049 96.4917C132.638 96.8687 133.122 97.3876 133.457 98.0006C133.792 98.6137 133.968 99.3013 133.968 100C133.968 100.699 133.792 101.386 133.457 101.999C133.122 102.612 132.638 103.131 132.049 103.508L85.5827 133.375C84.9537 133.779 84.2277 134.006 83.4808 134.032C82.7339 134.059 81.9936 133.884 81.3375 133.526C80.6814 133.168 80.1336 132.64 79.7515 131.998C79.3695 131.356 79.1673 130.622 79.166 129.875V129.867Z" fill="white"/>
<path d="M8.33398 100C8.33398 49.3752 49.3757 8.3335 100.001 8.3335C150.626 8.3335 191.667 49.3752 191.667 100C191.667 150.625 150.626 191.667 100.001 191.667C49.3757 191.667 8.33398 150.625 8.33398 100ZM100.001 20.8335C79.0043 20.8335 58.868 29.1742 44.0214 44.0209C29.1747 58.8675 20.834 79.0039 20.834 100C20.834 120.996 29.1747 141.133 44.0214 155.979C58.868 170.826 79.0043 179.167 100.001 179.167C120.997 179.167 141.133 170.826 155.98 155.979C170.827 141.133 179.167 120.996 179.167 100C179.167 79.0039 170.827 58.8675 155.98 44.0209C141.133 29.1742 120.997 20.8335 100.001 20.8335Z" fill="white"/>
</svg>
